# xmcd
#
# Track frame offsets:
#	150
#	21050
#	41785
#	57950
#	73615
#	88890
#	105085
#	123550
#	140055
#	157765
#	176800
#	192655
#	209575
#	224475
#	239690
#
# Disc length: 3424 seconds
#
# Revision: 0
# Processed by: cddbd v1.5.1PL0 Copyright (c) Steve Scherf et al.
# Submitted via: dBpowerAMP V4.0
#
DISCID=e70d5e0f
DTITLE=radio alegria - radio alegria
DYEAR=1900
DGENRE=
TTITLE0=jaina - mississipi
TTITLE1=aaa
TTITLE2=jiliano cesar - rumo a goiana
TTITLE3=aaaaaaaaa
TTITLE4=aaaaaaaaa
TTITLE5=lucas e luan - horizonte azul
TTITLE6=bruno e marroni - fruto especial
TTITLE7=rionegro e solimoes - sonhei
TTITLE8=jaine - a solidao
TTITLE9=juliano cesar - deixa a estrada me levar
TTITLE10=rionegro e solimoes - alegria geral
TTITLE11=aaaa
TTITLE12=aaaaa
TTITLE13=aaaaaa
TTITLE14=aaaaaa
EXTD=
EXTT0=
EXTT1=
EXTT2=
EXTT3=
EXTT4=
EXTT5=
EXTT6=
EXTT7=
EXTT8=
EXTT9=
EXTT10=
EXTT11=
EXTT12=
EXTT13=
EXTT14=
PLAYORDER=
